<?xml version="1.0" encoding="UTF-8" standalone="no"?><!DOCTYPE svg PUBLIC "-//W3C//DTD SVG 1.1//EN" "http://www.w3.org/Graphics/SVG/1.1/DTD/svg11.dtd"><svg width="100%" height="100%" viewBox="0 0 6199 2296" version="1.1" xmlns="http://www.w3.org/2000/svg" xmlns:xlink="http://www.w3.org/1999/xlink" xml:space="preserve" xmlns:serif="http://www.serif.com/" style="fill-rule:evenodd;clip-rule:evenodd;stroke-linejoin:round;stroke-miterlimit:2;"><g id="cleaned"><path d="M2962.079,1466.993l0,-46.155l-297.401,-0l-119.223,371.481l-667.179,0l-211.951,-323.082l216.857,-305.626l-0,-428.014l-130.654,-119.164l150.467,-164.975l203.474,185.58l-0,597.742l-169.86,239.391l62.232,94.861l383.772,0l119.223,-371.481l460.244,0l0,-721.54l223.287,-0l0,721.54l100.811,-0l0,223.287l-100.811,-0l0,101.362c-46.739,-30.299 -119.36,-59.399 -223.287,-55.207Zm519.938,189.126l-0,-235.281l-111.886,0l0,-223.287l111.886,-0l-0,-466.527l-114.479,-120.022l161.575,-154.112l176.191,184.723l0,555.939l408.362,-0l151.139,371.481l293.262,-0l0,-1093.021l223.287,-0l0,1222.161c-2.158,-1.253 -4.299,-2.364 -6.405,-3.341c-21.709,-10.081 -46.277,-12.139 -73.701,2.076c-31.156,16.149 -59.846,39.755 -84.405,64.302l1.296,-71.584l-207.629,9.039l-5.596,63.418c0,0 -0.844,10.113 -2.008,27.48l-2.15,-1.58l-7.111,4.338l-166.718,0c-0.233,-1.42 -0.476,-2.832 -0.729,-4.235c-6.005,-33.281 -17.843,-61.898 -34.661,-84.198l21.941,-111.496l-92.309,-83.554c0,0 -31.896,9.293 -100.799,18.294c-4.305,0.562 -8.686,0.996 -13.131,1.33l-43.786,-107.622l-258.147,0l0,262.51c-1.01,5.929 -1.651,11.859 -1.95,17.776c-65.049,-27.253 -147.342,-39.731 -221.336,-45.005Zm2241.709,41.547l0,-1015.233l-624.5,-0l-108.115,89.777l-142.645,-171.783l170.14,-141.281l928.408,-0l-0,1098.721c-0.983,0.369 -1.963,0.742 -2.94,1.121c-58.078,22.5 -107.828,58.376 -133.941,126.85c-2.643,6.931 -4.766,13.782 -6.404,20.546c-22.708,5.629 -49.762,20.177 -74.882,44.573l-4.108,-53.427l-1.012,0.135Zm-5545.286,-1234.028l-174.273,-139.592l162.279,-202.597l1104.695,0l0,223.287l-997.461,-0l-95.24,118.902Zm1209.486,-4.491l0,-340.517l223.287,-0l0,1671.612l-223.287,-0l0,-1107.808l-952.823,-0l-93.458,119.042l96.078,767.558l210.586,0l86.155,-623.093l108.533,-174.778l189.689,117.793l-83.531,134.515l-106.309,768.849l-602.203,0l-132.12,-1055.495l218.001,-277.678l1061.402,-0Zm345.358,-114.411l0,-223.287l1228.796,-0l-0,-117.282l223.287,-0l-0,340.569l-1452.082,-0Z"/><path d="M2748.058,1951.591c0,0 59.633,-101.76 139.799,-143.312c45.119,-23.386 28.321,223.753 28.321,223.753c0,0 73.773,-140.666 83.236,-140.695c14.151,-0.043 106.799,222.034 175.558,188.304c57.511,-28.213 30.698,-444.849 30.698,-444.849l48.454,-19.519c0,0 47.809,670.19 -47.005,680.133c-94.814,9.944 -192.415,-228.941 -192.415,-228.941c0,0 -81.832,210.303 -131.759,228.641c-49.927,18.339 8.41,-399.693 -13.641,-413.357c-22.051,-13.664 -63.117,104.708 -63.117,104.708l-58.129,-34.866Zm1846.817,-46.88c0,0 59.633,-101.76 139.799,-143.312c45.119,-23.386 28.321,223.753 28.321,223.753c0,0 73.773,-140.666 83.236,-140.695c14.151,-0.043 106.799,222.034 175.558,188.304c57.511,-28.213 30.698,-444.849 30.698,-444.849l48.454,-19.519c0,0 47.809,670.19 -47.005,680.133c-94.814,9.944 -192.415,-228.941 -192.415,-228.941c0,0 -81.832,210.303 -131.759,228.641c-49.927,18.339 8.41,-399.693 -13.641,-413.357c-22.051,-13.664 -63.117,104.708 -63.117,104.708l-58.129,-34.866Zm-1464.555,-198.519c-28.448,-54.255 -301.563,-175.217 -364.352,-56.669c-40.9,77.221 272.397,67.445 272.397,67.445l-37.001,62.48c0,0 -74.009,14.639 -180.59,-0.341c-77.98,-10.96 -106.054,-107.306 -97.222,-129.116c13.526,-33.399 30.634,-89.28 212.145,-108.274c184.448,-19.302 258.431,84.938 258.431,84.938l-63.808,79.538Zm323.879,348.811l63.224,82.906c0,0 -52.935,137.517 -116.741,91.541c-105.268,-75.852 -36.047,-376.628 -36.047,-376.628c0,0 85.764,-29.021 89.255,-23.331c88.139,143.66 465.843,427.385 359.02,172.797c-120.661,-287.568 -505.371,-180.453 -505.371,-180.453l-11.046,-93.928c0,0 258.901,-22.839 397.588,48.957c138.687,71.796 216.805,184.934 176.504,357.406c-26.215,112.187 -137.642,136.054 -250.088,33.498c-107.276,-97.842 -230.067,-257.73 -230.067,-257.73c0,0 -21.005,255.94 18.015,247.006c39.02,-8.934 45.755,-102.041 45.755,-102.041Zm483.153,-280.476l-99.115,53.95c0,0 -101.128,-93.913 -45.44,-168.58c59.605,-79.919 160.085,-50.692 236.982,-60.738c76.897,-10.046 112.424,-20.795 112.424,-20.795l-15.597,79.259c0,0 -99.183,4.116 -150.947,-8.478c-52.388,-12.746 -107.827,-9.179 -120.908,13.077c-25.607,43.571 82.601,112.305 82.601,112.305Zm2111.01,8.011l-80.623,78.958c0,0 -122.924,-62.739 -89.733,-149.773c35.525,-93.154 140.167,-92.467 211.4,-123.123c71.234,-30.656 102.478,-50.695 102.478,-50.695l6.631,80.507c0,0 -94.293,31.035 -147.528,33.05c-53.878,2.039 -106.238,20.605 -112.745,45.586c-12.74,48.906 110.121,85.491 110.121,85.491Zm-2102.298,65.167c0,0 105.372,-141.456 162.61,-119.634c87.182,33.238 35.132,269.699 35.132,269.699c0,0 219.782,118.731 236.442,106.362c16.661,-12.369 -22.508,-257.613 -22.508,-257.613l63.148,46.402c0,0 26.099,289.604 -34.773,327.245c-60.872,37.641 -293.771,-82.968 -293.771,-82.968c0,0 -62.469,95.226 -82.553,93.844c-20.084,-1.381 -48.992,-57.297 -64.266,-99.136c-15.273,-41.839 -46.471,-138.868 -3.249,-177.344c42.414,-37.756 152.519,31.053 152.519,31.053c0,0 36.491,-198.614 6.669,-200.433c-29.822,-1.818 -64.394,111.756 -64.394,111.756l-91.007,-49.233Zm44.686,224.586c0,0 9.602,72.593 27.954,59.617c18.353,-12.976 22.932,-38.108 22.932,-38.108l-50.886,-21.51Zm1354.798,51.208l38.885,36.936c0,0 -32.741,133.922 -85.064,126.503c-89.573,-12.7 -15.834,-414.474 -15.834,-414.474c0,0 91.072,-7.828 92.861,-4.716c265.19,461.404 270.618,322.351 265.976,265.527c-15.153,-185.494 -155.249,-296.215 -155.249,-296.215c0,0 -155.151,14.297 -245.31,-5.527c-97.886,-21.523 -90.413,-66.599 -90.413,-66.599c0,0 -2.88,-70.158 153.194,-66.589c82.912,1.896 156.818,75.768 188.535,87.919c30.013,11.499 165.073,-6.554 165.073,-6.554l6.27,81.545l-83.18,4.134c0,0 75.975,91.804 107.59,223.603c31.615,131.8 -43.498,191.333 -89.286,197.741c-144.134,20.172 -289.864,-361.524 -289.864,-361.524c0,0 -28.297,223.265 -6.76,268.359c9.641,20.187 42.575,-70.07 42.575,-70.07Zm60.912,-344.865c0,0 -9.104,-32.201 -89.773,-42.91c-80.668,-10.709 -89.213,23.433 -89.213,23.433c0,0 17.019,14.021 77.563,22.118c60.544,8.096 101.423,-2.64 101.423,-2.64Zm345.486,184.776l-55.07,-52.19c0,0 84.455,-136.235 126.852,-134.896c42.397,1.34 51.035,268.389 51.035,268.389c0,0 211.544,-257.487 251.081,-254.312c39.537,3.175 58.307,123.9 69.49,193.198c11.183,69.299 -20.094,267.951 -20.094,267.951l-77.824,-24.47c0,0 61.837,-253.522 33.354,-246.923c-43.364,10.047 -237.824,256.642 -296.878,268.182c-39.498,7.719 -14.011,-351.088 -25.828,-387.18c-11.817,-36.092 -56.118,102.25 -56.118,102.25Zm-1160.305,175.962l71.392,42.037c0,0 -86.641,85.535 -141.735,63.391c-83.107,-33.404 -44.025,-476.333 -44.025,-476.333l63.007,-2.743c0,0 -24,361.152 7.523,385.601c21.915,16.997 43.837,-11.952 43.837,-11.952Z"/></g></svg>